P2
# Edge detection
#
# Original stencil ranges
# -1 -1 -1
# -1 8 -1
# -1 -1 -1
#
3 3
255
112 112 112
112 255 112
112 112 112