P2
# Emboss
#
# Original stencil
# -2 -1 0
# -1 1 1
# 0 1 2
#
3 3
255
96  112 128
112 143 143
128 143 159