P2
# Sharpen
#
# Original stencil
#
# 0 -1 0
# -1 5 -1
# 0 -1 0
#
3 3
255
128 112 128
112 207 112
128 112 128